<?xml version="1.0" standalone="no"?><!DOCTYPE svg PUBLIC "-//W3C//DTD SVG 1.1//EN" "http://www.w3.org/Graphics/SVG/1.1/DTD/svg11.dtd"><svg t="1705576469639" class="icon" viewBox="0 0 1024 1024" version="1.1" xmlns="http://www.w3.org/2000/svg" p-id="15642" xmlns:xlink="http://www.w3.org/1999/xlink" width="200" height="200"><path d="M510.737067 1021.986133C229.819733 1021.986133 0 792.1664 0 511.317333 0 230.365867 229.819733 0.546133 510.737067 0.546133c280.8832 0 510.702933 229.819733 510.702933 510.737067 0 283.4432-229.819733 510.702933-510.702933 510.702933z" fill="#2F94FD" p-id="15643"></path><path d="M331.9808 271.223467h127.658667v165.9904l160.904533-165.9904h178.722133s-219.579733 204.288-229.819733 214.528c-10.205867 10.205867-15.325867 28.091733-2.56 48.503466 15.36 20.445867 191.522133 224.733867 191.522133 224.733867l-160.8704-2.56-160.8704-191.522133-15.325866 194.082133-132.778667 2.525867L331.9808 271.223467z" fill="#FFFFFF" p-id="15644"></path></svg>